<svg width="32" height="32" viewBox="0 0 32 32" fill="none" xmlns="http://www.w3.org/2000/svg">
  <!-- PredictX Icon -->
  <g>
    <!-- P shape with gradient -->
    <path
      d="M6 4C6 4 6 8 6 12C6 16 6 20 6 20H10C12.2091 20 14 18.2091 14 16C14 13.7909 12.2091 12 10 12H8V8H14"
      fill="url(#pGradient)"
      stroke="url(#pGradient)"
      stroke-width="1"
    />
    
    <!-- Candlestick chart -->
    <rect x="7" y="13" width="1" height="2" fill="#ef4444" rx="0.25" />
    <rect x="9" y="12" width="1" height="3" fill="#22c55e" rx="0.25" />
    <rect x="11" y="11" width="1" height="4" fill="#22c55e" rx="0.25" />
    
    <!-- Arrow -->
    <path
      d="M11 9L12 8L13 9"
      stroke="url(#arrowGradient)"
      stroke-width="1.5"
      stroke-linecap="round"
      stroke-linejoin="round"
      fill="none"
    />
    <path
      d="M12 8V10"
      stroke="url(#arrowGradient)"
      stroke-width="1.5"
      stroke-linecap="round"
    />
  </g>
  
  <defs>
    <linearGradient id="pGradient" x1="6" y1="4" x2="14" y2="20" gradientUnits="userSpaceOnUse">
      <stop offset="0%" stop-color="#06b6d4" />
      <stop offset="50%" stop-color="#3b82f6" />
      <stop offset="100%" stop-color="#22c55e" />
    </linearGradient>
    <linearGradient id="arrowGradient" x1="11" y1="9" x2="13" y2="8" gradientUnits="userSpaceOnUse">
      <stop offset="0%" stop-color="#06b6d4" />
      <stop offset="100%" stop-color="#22c55e" />
    </linearGradient>
  </defs>
</svg>
